<svg xmlns="http://www.w3.org/2000/svg" width="32" height="32" viewBox="0 0 8.467 8.467"><g transform="translate(-51.594 -16.934)"><path fill="#0088d1" fill-opacity=".98" style="line-height:normal;font-variant-ligatures:normal;font-variant-position:normal;font-variant-caps:normal;font-variant-numeric:normal;font-variant-alternates:normal;font-feature-settings:normal;text-indent:0;text-align:start;text-decoration-line:none;text-decoration-style:solid;text-decoration-color:#000;text-transform:none;text-orientation:mixed;shape-padding:0;isolation:auto;mix-blend-mode:normal" d="m 53.181765,18.7849 c -0.435242,0 -0.7953,0.360058 -0.7953,0.7953 0,0.435243 0.360058,0.792716 0.7953,0.792716 v 3.703134 c 0,0.435242 0.357476,0.7953 0.792718,0.7953 h 3.705199 c 0.435242,0 0.792718,-0.360058 0.792718,-0.7953 v -3.703134 c 0.435242,0 0.7953,-0.357473 0.7953,-0.792716 0,-0.435242 -0.360058,-0.7953 -0.7953,-0.7953 z" color="#000" font-family="sans-serif" font-weight="400" overflow="visible" paint-order="markers fill stroke"/><path fill="#0178be" style="line-height:normal;font-variant-ligatures:normal;font-variant-position:normal;font-variant-caps:normal;font-variant-numeric:normal;font-variant-alternates:normal;font-feature-settings:normal;text-indent:0;text-align:start;text-decoration-line:none;text-decoration-style:solid;text-decoration-color:#000;text-transform:none;text-orientation:mixed;shape-padding:0;isolation:auto;mix-blend-mode:normal" d="m 55.827083,18.7849 v 6.08645 h 1.852599 c 0.435242,0 0.792718,-0.360058 0.792718,-0.7953 v -3.703134 c 0.435242,0 0.7953,-0.357473 0.7953,-0.792716 0,-0.435242 -0.360058,-0.7953 -0.7953,-0.7953 z" color="#000" font-family="sans-serif" font-weight="400" overflow="visible" paint-order="markers fill stroke"/><path fill="#c8d4dd" style="line-height:normal;font-variant-ligatures:normal;font-variant-position:normal;font-variant-caps:normal;font-variant-numeric:normal;font-variant-alternates:normal;font-feature-settings:normal;text-indent:0;text-align:start;text-decoration-line:none;text-decoration-style:solid;text-decoration-color:#000;text-transform:none;text-orientation:mixed;shape-padding:0;isolation:auto;mix-blend-mode:normal" d="M54.765648 21.162016a.26460981.26460981 0 0 0-.261998.26975v2.117184a.2648415.2648415 0 1 0 .529683 0v-2.117184a.26460981.26460981 0 0 0-.267685-.26975zM55.827083 21.162016a.26460981.26460981 0 0 0-.0047 0 .26460981.26460981 0 0 0-.259927.26975v2.117184a.2646485.2646485 0 0 0 .264584.270268z" color="#000" font-family="sans-serif" font-weight="400" overflow="visible"/><path fill="#aebdc0" style="line-height:normal;font-variant-ligatures:normal;font-variant-position:normal;font-variant-caps:normal;font-variant-numeric:normal;font-variant-alternates:normal;font-feature-settings:normal;text-indent:0;text-align:start;text-decoration-line:none;text-decoration-style:solid;text-decoration-color:#000;text-transform:none;text-orientation:mixed;shape-padding:0;isolation:auto;mix-blend-mode:normal" d="m 55.827083,21.162016 v 2.657202 a 0.2646485,0.2646485 0 0 0 0.264583,-0.270268 v -2.117184 a 0.26460981,0.26460981 0 0 0 -0.264583,-0.26975 z m 1.053682,0 a 0.26460981,0.26460981 0 0 0 -0.259416,0.26975 v 2.117184 a 0.2646485,0.2646485 0 1 0 0.529166,0 v -2.117184 a 0.26460981,0.26460981 0 0 0 -0.26975,-0.26975 z" color="#000" font-family="sans-serif" font-weight="400" overflow="visible"/><path fill="#0088d1" fill-opacity=".98" d="m 55.033333,17.463017 c -0.435243,-2e-6 -0.793234,0.357474 -0.793234,0.792716 v 0.266134 h 0.529685 v -0.266134 c 0,-0.149259 0.114289,-0.263551 0.263549,-0.26355 h 1.588016 c 0.149259,0 0.263548,0.114291 0.263551,0.26355 v 0.266134 h 0.529167 v -0.266134 c 0,-0.435241 -0.357476,-0.792716 -0.792718,-0.792716 z" color="#000" font-family="sans-serif" font-weight="400" overflow="visible" style="line-height:normal;font-variant-ligatures:normal;font-variant-position:normal;font-variant-caps:normal;font-variant-numeric:normal;font-variant-alternates:normal;font-feature-settings:normal;text-indent:0;text-align:start;text-decoration-line:none;text-decoration-style:solid;text-decoration-color:#000;text-transform:none;text-orientation:mixed;shape-padding:0;isolation:auto;mix-blend-mode:normal"/><path fill="#0178be" style="line-height:normal;font-variant-ligatures:normal;font-variant-position:normal;font-variant-caps:normal;font-variant-numeric:normal;font-variant-alternates:normal;font-feature-settings:normal;text-indent:0;text-align:start;text-decoration-line:none;text-decoration-style:solid;text-decoration-color:#000;text-transform:none;text-orientation:mixed;shape-padding:0;isolation:auto;mix-blend-mode:normal" d="m 55.827083,17.463017 v 0.529166 h 0.794266 c 0.149259,0 0.263548,0.114291 0.263551,0.26355 v 0.266134 h 0.529167 v -0.266134 c 0,-0.435241 -0.357476,-0.792716 -0.792718,-0.792716 z" color="#000" font-family="sans-serif" font-weight="400" overflow="visible"/></g></svg>