<svg xmlns="http://www.w3.org/2000/svg" xmlns:svgjs="http://svgjs.com/svgjs" xmlns:xlink="http://www.w3.org/1999/xlink" width="288" height="288"><svg xmlns="http://www.w3.org/2000/svg" width="288" height="288" viewBox="0 0 32 32"><path fill="#fff" d="M14 23c-.1 0-.2 0-.3-.1l-1.4-.9H8c-.8 0-1.5-.7-1.5-1.5v-2c0-.8.7-1.5 1.5-1.5h5c.8 0 1.5.7 1.5 1.5v4c0 .2-.1.4-.3.4 0 .1-.1.1-.2.1zm-6-5c-.3 0-.5.2-.5.5v2c0 .3.2.5.5.5h4.5c.1 0 .2 0 .3.1l.7.5v-3.1c0-.3-.2-.5-.5-.5H8zM19 19c-.1 0-.2 0-.2-.1-.2-.1-.3-.3-.3-.4v-6c0-.8.7-1.5 1.5-1.5h6c.8 0 1.5.7 1.5 1.5v4c0 .8-.7 1.5-1.5 1.5h-5.3l-1.4.9c-.1.1-.2.1-.3.1zm1-7c-.3 0-.5.2-.5.5v5.1l.7-.5c.1-.1.2-.1.3-.1H26c.3 0 .5-.2.5-.5v-4c0-.3-.2-.5-.5-.5h-6zM14 16c-.1 0-.2 0-.3-.1l-1.4-.9H6c-.8 0-1.5-.7-1.5-1.5v-4C4.5 8.7 5.2 8 6 8h7c.8 0 1.5.7 1.5 1.5v6c0 .2-.1.4-.3.4 0 .1-.1.1-.2.1zM6 9c-.3 0-.5.2-.5.5v4c0 .3.2.5.5.5h6.5c.1 0 .2 0 .3.1l.7.5V9.5c0-.3-.2-.5-.5-.5H6zM18 5h-3c-.3 0-.5-.2-.5-.5s.2-.5.5-.5h3c.3 0 .5.2.5.5s-.2.5-.5.5z" class="color4f5266 svgShape"/><path fill="#fff" d="M12 11H7c-.3 0-.5-.2-.5-.5s.2-.5.5-.5h5c.3 0 .5.2.5.5s-.2.5-.5.5zM10 13H7c-.3 0-.5-.2-.5-.5s.2-.5.5-.5h3c.3 0 .5.2.5.5s-.2.5-.5.5zM12 20H9c-.3 0-.5-.2-.5-.5s.2-.5.5-.5h3c.3 0 .5.2.5.5s-.2.5-.5.5zM24 16h-3c-.3 0-.5-.2-.5-.5s.2-.5.5-.5h3c.3 0 .5.2.5.5s-.2.5-.5.5zM24 14h-3c-.3 0-.5-.2-.5-.5s.2-.5.5-.5h3c.3 0 .5.2.5.5s-.2.5-.5.5zM11 5h-.2c-.1 0-.1-.1-.2-.1s-.1-.1-.1-.2v-.2c0-.1 0-.3.1-.4 0 0 .1-.1.2-.1h.4c.1 0 .1.1.2.1s.1.1.1.2v.2c0 .1-.1.3-.2.3 0 0-.1.1-.2.1 0 .1 0 .1-.1.1zM23.5 7h-14c-.3 0-.5-.2-.5-.5s.2-.5.5-.5h14c.3 0 .5.2.5.5s-.2.5-.5.5zM23.5 25h-14c-.3 0-.5-.2-.5-.5s.2-.5.5-.5h14c.3 0 .5.2.5.5s-.2.5-.5.5zM9 18c-.3 0-.5-.2-.5-.5v-3c0-.3.2-.5.5-.5s.5.2.5.5v3c0 .3-.2.5-.5.5z" class="color4f5266 svgShape"/><path fill="#fff" d="M22 30H11c-1.4 0-2.5-1.1-2.5-2.5v-6c0-.3.2-.5.5-.5s.5.2.5.5v6c0 .8.7 1.5 1.5 1.5h11c.8 0 1.5-.7 1.5-1.5v-10c0-.3.2-.5.5-.5s.5.2.5.5v10c0 1.4-1.1 2.5-2.5 2.5zM24 12c-.3 0-.5-.2-.5-.5v-7c0-.8-.7-1.5-1.5-1.5H11c-.8 0-1.5.7-1.5 1.5v4c0 .3-.2.5-.5.5s-.5-.2-.5-.5v-4C8.5 3.1 9.6 2 11 2h11c1.4 0 2.5 1.1 2.5 2.5v7c0 .3-.2.5-.5.5z" class="color4f5266 svgShape"/><path fill="#fff" d="M18 28h-3c-.3 0-.5-.2-.5-.5v-1c0-.3.2-.5.5-.5h3c.3 0 .5.2.5.5v1c0 .3-.2.5-.5.5zm-2.5-1h2-2z" class="color4f5266 svgShape"/></svg></svg>