<svg xmlns="http://www.w3.org/2000/svg" viewBox="0 0 64 64"><path fill="#ccd3eb" d="M60 13v38.1a2 2 0 0 1-2 1.9H6a2 2 0 0 1-2-1.9V13Z"/><path fill="#f5f7ff" d="M55 11.9v32.39A5.82 5.82 0 0 1 49.12 50H4V12h2v-.1Z"/><path fill="#0074ff" d="M60 6v8H4V6a2 2 0 0 1 2-2h52a2 2 0 0 1 2 2Z"/><circle cx="42" cy="9" r="2" fill="#f5f7ff"/><circle cx="48" cy="9" r="2" fill="#f5f7ff"/><circle cx="54" cy="9" r="2" fill="#f5f7ff"/><path fill="#f5f7ff" d="M8 9a1 1 0 0 0 1 1h19a1 1 0 0 0 0-2H9a1 1 0 0 0-1 1Z"/><path fill="#0074ff" d="M47 45.25a15 15 0 1 1-6-12 15 15 0 0 1 6 12Z"/><path fill="#f5f7ff" d="M26.71 46.29a1 1 0 0 0-1.42 0l-.29.3V45a7 7 0 0 1 6.94-7H36a1 1 0 0 0 0-2h-4.06A9 9 0 0 0 23 45v1.56l-.29-.3a1 1 0 0 0-1.42 1.42l2 2a.85.85 0 0 0 .3.19A1 1 0 0 0 24 50a1.22 1.22 0 0 0 .38-.07 1.19 1.19 0 0 0 .33-.22l2-2a1 1 0 0 0 0-1.42zm16-4-2-2a.85.85 0 0 0-.3-.19.85.85 0 0 0-.41-.1h-.1a1 1 0 0 0-.25.05h-.1a1 1 0 0 0-.3.19l-2 2a1 1 0 0 0 1.42 1.42l.29-.3V45a7 7 0 0 1-6.94 7H28a1 1 0 0 0 0 2h4.07A9 9 0 0 0 41 45v-1.59l.29.3a1 1 0 0 0 1.42 0 1 1 0 0 0 0-1.42z"/><path fill="#033c59" d="M58 3h-2a1 1 0 0 0 0 2h2a1 1 0 0 1 1 1v7H5V6a1 1 0 0 1 1-1h41a1 1 0 0 0 0-2H6a3 3 0 0 0-3 3v45a3 3 0 0 0 3 3h12.78a16 16 0 0 0 26.44 0H58a3 3 0 0 0 3-3V6a3 3 0 0 0-3-3ZM32 59a14 14 0 1 1 14-14 14 14 0 0 1-14 14Zm26-7H46.37a16 16 0 1 0-28.74 0H6a1 1 0 0 1-1-1V15h54v36a1 1 0 0 1-1 1Z"/><path fill="#033c59" d="M51 5h1a1 1 0 0 0 0-2h-1a1 1 0 0 0 0 2Z"/><circle cx="42" cy="9" r="2" fill="#f5f7ff"/><circle cx="48" cy="9" r="2" fill="#f5f7ff"/><circle cx="54" cy="9" r="2" fill="#f5f7ff"/><path fill="#f5f7ff" d="M9 8a1 1 0 0 0 0 2h19a1 1 0 0 0 0-2Z"/></svg>